<svg width="100" height="98" viewBox="0 0 100 98" fill="none" xmlns="http://www.w3.org/2000/svg">
<path fill-rule="evenodd" clip-rule="evenodd" d="M5.62924 0.321637C2.95978 1.02489 0.729835 3.34349 0.170739 5.99717C0.0226739 6.69946 -0.0245352 20.0432 0.0115544 50.9047L0.0630552 94.8129L0.653364 95.7491C1.01933 96.3294 1.60691 96.9054 2.19878 97.2643L3.15349 97.843L23.0225 97.8942L42.8913 97.9457L43.8639 97.5354C44.9172 97.0912 45.8953 96.1368 46.3211 95.1377C46.5385 94.6278 46.5894 92.3646 46.5894 83.218V71.9278H49.9057H53.2221V83.218C53.2221 92.2581 53.2745 94.631 53.485 95.1237C53.9117 96.1215 54.7962 97.0059 55.8476 97.4859L56.831 97.9348L76.4364 97.9283C92.3081 97.9231 96.1814 97.873 96.7738 97.6657C97.9016 97.2711 98.7525 96.5344 99.2548 95.5179C99.5065 95.0084 99.7862 94.4423 99.8767 94.2596C99.9671 94.077 100.02 74.1959 99.9932 50.0794C99.9669 25.963 99.9218 15.3112 99.8931 26.4088L99.841 46.5863L99.3805 45.63C98.8393 44.5064 98.0984 43.775 97.0173 43.2973C96.3078 42.9838 95.4085 42.9471 87.117 42.8943L77.9971 42.836V35.1006V27.3651L85.5564 27.3632L93.1157 27.3612L94.1282 26.8992C95.2623 26.3814 96.2108 25.2743 96.5368 24.0877C96.6663 23.6161 96.718 19.7651 96.6825 13.2634C96.6213 2.11313 96.6856 2.68403 95.3441 1.36896C93.9697 0.0215565 95.3181 0.116611 76.7751 0.0590427L60.0444 0.00721222L59.0701 0.418031C58.0155 0.862701 57.0376 1.81688 56.6116 2.81638C56.4102 3.28859 56.3433 4.54591 56.3433 7.85082V12.2558H51.4821H46.621L46.5552 8.86104C46.4918 5.5875 46.4698 5.42684 45.9386 4.36365C44.9248 2.33442 43.0924 0.866718 40.8345 0.275353C39.327 -0.119399 7.14266 -0.0771318 5.62924 0.321637ZM6.40195 3.06138C5.05844 3.46646 4.03545 4.30531 3.35287 5.56187C3.00875 6.19531 2.98631 7.00642 2.93579 20.6971L2.88234 35.1628L4.88794 35.2356C7.08824 35.3154 7.85899 35.5983 8.62604 36.6071C9.02439 37.1312 9.03668 37.3391 9.03668 43.588C9.03668 50.0259 9.03649 50.0293 8.58235 50.6534C7.86992 51.6328 7.1411 51.8983 4.89126 51.9983L2.8917 52.0872V53.6879V55.2885H19.6685C36.1852 55.2885 36.4513 55.2944 36.8354 55.671C37.3284 56.1543 37.3362 57.0247 36.8528 57.6101L36.4798 58.0617L19.6858 58.1137L2.8917 58.1656V59.7872V61.4087H4.96578C7.37832 61.4087 8.10109 61.7032 8.75011 62.9504C9.10789 63.6378 9.13422 64.0972 9.13422 69.6312C9.13422 76.2691 9.10145 76.4678 7.85607 77.3992C7.17076 77.9116 6.98016 77.9531 5.00674 78.0193L2.8917 78.0902V86.0211V93.9517L3.46191 94.5107L4.03213 95.0698H23.3689H42.7055L43.1843 94.6002L43.6632 94.1309V76.1677V58.2048L42.5787 58.1166C41.2969 58.0124 40.672 57.5285 40.672 56.6403C40.672 55.6765 41.2032 55.2885 42.523 55.2885H43.6632L43.6589 30.8555C43.6548 7.60544 43.6374 6.38542 43.2982 5.65749C42.8723 4.74329 41.92 3.79542 40.9532 3.3234C40.294 3.00171 39.1885 2.9778 23.5701 2.94701C14.3965 2.92884 6.67077 2.98029 6.40195 3.06138ZM59.7484 3.35381L59.2695 3.82316V13.7633V23.7035L59.7835 24.0998C60.2909 24.4911 60.4521 24.4962 72.3661 24.4962H84.4347V13.6903V2.88428H72.331H60.2271L59.7484 3.35381ZM87.3609 6.04001V9.19573H90.5797H93.7985V6.59905V4.00236L93.2282 3.44332L92.658 2.88428H90.0094H87.3609V6.04001ZM63.0999 6.53211L62.5858 6.92839V13.7042C62.5858 20.2249 62.6005 20.4942 62.976 20.8624C63.3541 21.233 63.6262 21.2449 71.7633 21.2449H80.1607L80.6466 20.7685L81.1328 20.2918L81.0768 13.5791L81.0208 6.86643L80.5602 6.50113C80.1738 6.19435 79.7778 6.13564 78.0993 6.13564C76.3709 6.13564 76.0289 6.18957 75.5849 6.53211C75.2121 6.81957 75.0709 7.10473 75.0709 7.57006C75.0709 8.50492 75.7935 9.00448 77.1456 9.00448H78.1922V13.6903V18.376H71.8521H65.512V13.6903V9.00448H68.1021C70.9214 9.00448 71.4071 8.86046 71.6389 7.95544C71.7815 7.39831 71.3443 6.43361 70.8679 6.25441C70.6943 6.18919 68.9911 6.13564 67.083 6.13564C63.8687 6.13564 63.5761 6.16471 63.0999 6.53211ZM0.0612995 50.4114C0.0614946 74.6054 0.0841237 84.4744 0.111825 72.3428C0.139526 60.211 0.139526 40.416 0.111825 28.3539C0.0841237 16.2915 0.0612995 26.2175 0.0612995 50.4114ZM87.3609 18.2804V24.4962H89.9784C91.4181 24.4962 92.7382 24.4427 92.9118 24.3775C93.714 24.0757 93.7985 23.4323 93.7985 17.6206V12.0646H90.5797H87.3609V18.2804ZM18.9233 12.5716C18.5669 12.747 18.0402 13.1926 17.7528 13.5621C17.2466 14.2124 17.23 14.3139 17.23 16.7685C17.23 19.5829 17.3521 19.9212 18.6911 20.8145C19.3066 21.2254 19.513 21.2449 23.2281 21.2449C27.5538 21.2449 28.0863 21.1301 28.8899 20.026C29.2763 19.4947 29.3319 19.1506 29.3875 16.9416C29.4464 14.6024 29.4234 14.4168 28.9974 13.8035C28.0171 12.3924 27.8879 12.357 23.5076 12.3021C20.1542 12.2602 19.475 12.3002 18.9233 12.5716ZM20.0586 16.7504V18.376H23.2774H26.4962V16.7504V15.1247H23.2774H20.0586V16.7504ZM46.6795 15.3637C46.6284 15.4953 46.6093 27.6089 46.6368 42.2831L46.6869 68.9633H49.9057H53.1245L53.2221 57.4728L53.3196 45.9821L53.9048 45.0614C54.3118 44.4209 54.8168 43.9596 55.563 43.5465L56.6359 42.9525L65.8534 42.8943L75.0709 42.8362V35.1006V27.3651L67.414 27.3609C58.8752 27.3563 58.8842 27.3574 57.5725 26.0018C56.4221 24.8131 56.3433 24.3977 56.3433 19.5297V15.1247H51.5578C47.9089 15.1247 46.7501 15.1815 46.6795 15.3637ZM2.8917 43.6295V49.1838L4.5011 49.1281L6.1105 49.0727L6.1622 43.574L6.21409 38.0754H4.5528H2.8917V43.6295ZM57.3187 45.8588C57.1578 45.9175 56.8287 46.1418 56.5872 46.3572C56.157 46.7409 56.1482 46.8336 56.1482 51.0263V55.304L57.7576 55.2483L59.367 55.1929L59.4646 52.4959C59.5329 50.61 59.6427 49.7042 59.8298 49.4837C60.0668 49.2046 60.7211 49.1683 65.5218 49.1683H70.946L71.3502 49.6722C71.7134 50.125 71.7546 50.4359 71.7546 52.7323V55.2885H73.4878H75.2211L75.1193 54.0457C74.988 52.4416 75.3936 51.3668 76.5119 50.3562C77.5673 49.4024 78.4824 49.1054 80.0606 49.2039C81.5926 49.2995 82.6755 49.9681 83.5521 51.3593C84.0832 52.202 84.1403 52.4451 84.1249 53.7919L84.1077 55.2885H90.5137H96.9197V51.0916C96.9197 46.9308 96.9156 46.8898 96.449 46.358L95.9783 45.8213L76.7948 45.7867C66.244 45.7676 57.4797 45.8001 57.3187 45.8588ZM86.3855 49.5508C85.8898 50.0368 85.8829 50.9707 86.3714 51.4496C86.8687 51.9371 88.0832 52.0968 90.6013 52.0054C92.5794 51.9337 92.6924 51.9065 93.1375 51.3993C93.7093 50.7475 93.7243 50.3269 93.199 49.6722L92.7948 49.1683H89.7851C87.0357 49.1683 86.7419 49.2014 86.3855 49.5508ZM62.3908 53.6676V55.298L65.5608 55.2454L68.7308 55.1929L68.7874 53.615L68.8442 52.0371H65.6174H62.3908V53.6676ZM78.4015 52.5411C77.9177 53.1439 77.8822 53.895 78.3094 54.493C79.3379 55.9324 81.5973 54.887 81.2085 53.1518C80.948 51.9893 79.1566 51.5997 78.4015 52.5411ZM56.1482 76.144V94.1309L56.6272 94.6002L57.1059 95.0698H76.4425H95.7793L96.3495 94.5107L96.9197 93.9517V76.0545V58.1573H76.534H56.1482V76.144ZM73.2176 63.247C72.5739 63.3991 71.2175 63.9185 70.2035 64.4016C67.7506 65.57 65.4281 67.7877 64.182 70.1516C60.5658 77.0116 63.2516 85.3257 70.1926 88.7572C77.5587 92.3987 86.5493 89.0131 89.4888 81.4906C92.4938 73.8004 88.0093 65.3308 79.8679 63.3199C78.022 62.864 74.981 62.8307 73.2176 63.247ZM2.8917 69.7283V75.1791H4.54987H6.20804V69.7283V64.2775H4.54987H2.8917V69.7283ZM73.7053 66.1096C70.8402 66.8488 67.987 69.0735 66.7344 71.5453C64.1131 76.7172 65.7467 82.61 70.6676 85.7346C76.0441 89.1487 83.5385 87.0282 86.3431 81.2993C87.5542 78.8254 87.8109 76.8737 87.2612 74.3185C86.4126 70.3731 83.2305 67.1152 79.2274 66.0929C77.8316 65.7364 75.1199 65.7447 73.7053 66.1096ZM73.9556 69.4944C70.597 70.672 68.6594 73.5481 68.866 77.0492C68.9766 78.9216 69.6128 80.3484 70.96 81.7449C75.3165 86.2609 82.7976 84.0119 84.0691 77.8041C84.3726 76.3225 84.1423 74.6838 83.5484 74.1016C82.9419 73.507 82.0982 73.5119 81.5218 74.1134C81.1215 74.531 81.0904 74.6933 81.2128 75.7263C81.7892 80.5961 76.0498 83.2169 72.8456 79.547C70.9982 77.431 71.5495 74.0798 73.9882 72.6021C74.8481 72.0812 75.1105 72.0217 76.6167 72.0068C78.6955 71.9863 79.0632 71.8714 79.3689 71.1478C79.6982 70.3687 79.3728 69.6972 78.4906 69.3359C77.4758 68.9201 75.3848 68.9931 73.9556 69.4944Z" fill="#E4B3B3"/>
</svg>
